<?xml version="1.0" encoding="UTF-8"?>
<svg enable-background="new 0 0 512 512" version="1.1" viewBox="0 0 512 512" xml:space="preserve"
     xmlns="http://www.w3.org/2000/svg">
<g stroke="#000" stroke-width="10"><g stroke="#000" stroke-width="10"><path d="m492.14 15.556c-12.058-5.034-25.859-2.352-35.15 6.834l-65.088 64.349c-41.042-24.673-87.679-37.633-135.9-37.633s-94.855 12.961-135.9 37.633l-65.084-64.348c-9.29-9.185-23.1-11.867-35.158-6.834-12.056 5.033-19.864 16.728-19.864 29.792v235.97c0 119.98 97.649 217.63 217.63 217.63h76.735c119.98 0 217.63-97.649 217.63-217.63v-235.97c0-13.064-7.808-24.759-19.863-29.793zm3.012 265.76c0 97.458-103.32 200.78-200.78 200.78h-76.735c-97.458 0-210.34-103.79-200.78-200.78 0 0-1.0111-178.17 0-243.73 0.12337-7.9996 16.617-2.8104 24 0.2715 26.889 11.224 62.169 61.448 62.169 61.448 6.986 6.907 18.141 7.862 26.22 2.275 19.822-13.706 40.974-23.8 64.123-30.352v24.53c0 11.28-2.855 20.426 8.426 20.426s8.426-9.145 8.426-20.426v-28.435c7.4895-0.732 26.638-5.098 45.787-5.098 19.149 0 38.298 4.366 45.787 5.098v28.436c0 11.28-2.855 20.426 8.426 20.426s8.426-9.145 8.426-20.426v-24.53c23.149 6.553 44.292 16.647 64.114 30.354 8.079 5.587 19.125 4.633 26.112-2.275 0 0 34.921-51.357 62.284-61.45 7.5251-2.7758 24.042-6.2926 24 1.728-0.33435 64.355 0 241.73 0 241.73z" stroke-width="0"/></g></g>
    <path d="m346.79 341.59c-11.024-2.403-7.904 4.586-10.306 15.608-2.929 13.445-29.063 23.203-42.85 23.203-8.558 0-24.694-1.723-30.322-8.214-0.445-0.513-0.918-28.994-1.407-29.456l35.357-27.113c9.821-9.821 2.865-26.369-11.024-26.369h-60.484c-13.889 0-20.845 16.549-11.024 26.369l33.237 27.116c-0.532 0.496-1.04 26.959-1.522 27.514-5.627 6.491-19.763 10.184-28.322 10.184-13.787 0-41.92-9.774-44.85-23.218-2.402-11.023 2.715-18.017-8.306-15.616-11.022 2.402-18.01-12.719-15.608-1.698 6.99 32.076 35.909 55.355 68.765 55.355 13.516 0 26.582-3.885 37.756-10.994 11.174 7.109 24.24 10.993 37.756 10.993 32.855 0 61.775-23.281 68.765-55.357 2.399-11.023-4.589 4.095-15.611 1.693z"/>
    <path d="m128 227.5c-6.3109-8.0177 36-21 36-21l36 18s-3.8427 11.294-4 11c-5.1039-9.5368-22.191-18.411-33-18-9.7284 0.37007-28.979 17.65-35 10z"
          color="#000000" color-rendering="auto" fill-rule="evenodd"
          image-rendering="auto" shape-rendering="auto" stroke="#000" stroke-width="5"
          style="block-progression:tb;isolation:auto;mix-blend-mode:normal;text-decoration-color:#000000;text-decoration-line:none;text-decoration-style:solid;text-indent:0;text-transform:none;white-space:normal"/>
    <path d="m384.01 225.5c6.3109-8.0177-36-21-36-21l-36 18s3.8427 11.294 4 11c5.1039-9.5368 22.191-18.411 33-18 9.7284 0.37007 28.979 17.65 35 10z"
          color="#000000" color-rendering="auto" fill-rule="evenodd"
          image-rendering="auto" shape-rendering="auto" stroke="#000" stroke-width="5"
          style="block-progression:tb;isolation:auto;mix-blend-mode:normal;text-decoration-color:#000000;text-decoration-line:none;text-decoration-style:solid;text-indent:0;text-transform:none;white-space:normal"/></svg>
